<?xml version="1.0" standalone="no"?>
<!DOCTYPE svg PUBLIC "-//W3C//DTD SVG 20010904//EN"
 "http://www.w3.org/TR/2001/REC-SVG-20010904/DTD/svg10.dtd">
<svg version="1.0" xmlns="http://www.w3.org/2000/svg"
 width="320.000000pt" height="320.000000pt" viewBox="0 0 320.000000 320.000000"
 preserveAspectRatio="xMidYMid meet">

<g transform="translate(0.000000,320.000000) scale(0.100000,-0.100000)"
fill="#000000" stroke="none">
<path d="M423 3165 c-211 -57 -368 -227 -409 -443 -21 -110 -20 -2185 1 -2285
39 -187 180 -348 361 -413 l65 -24 1159 0 1159 0 65 24 c181 65 322 226 361
413 21 100 22 2175 1 2285 -42 218 -199 387 -413 443 -83 22 -2270 21 -2350 0z
m1911 -470 c130 -34 244 -119 320 -238 74 -116 71 -76 74 -817 2 -431 -1 -682
-8 -713 -35 -165 -175 -310 -349 -361 -48 -14 -142 -16 -741 -16 -597 0 -693
2 -741 16 -144 42 -279 155 -345 290 l-39 78 -3 675 c-3 708 -2 742 40 826 64
127 186 226 328 264 20 5 327 10 720 10 581 1 695 -1 744 -14z"/>
<path d="M1424 2121 c-28 -13 -46 -30 -58 -55 l-17 -36 -74 0 c-56 0 -75 3
-75 13 0 30 -36 47 -98 47 -62 0 -92 -15 -92 -46 0 -8 -10 -14 -26 -14 -40 0
-93 -30 -109 -61 -12 -23 -15 -92 -15 -383 l0 -354 26 -31 c14 -17 42 -35 62
-41 25 -8 245 -10 680 -8 l644 3 34 37 34 38 0 355 c0 395 -1 399 -64 429 -28
13 -69 16 -230 16 -195 0 -197 0 -205 23 -12 29 -49 63 -84 76 -16 6 -88 11
-160 11 -107 0 -140 -4 -173 -19z m510 -207 c33 -32 8 -84 -39 -84 -15 0 -31
10 -41 25 -15 23 -15 27 0 50 19 29 56 33 80 9z m-227 -34 c155 -54 245 -224
198 -372 -26 -85 -79 -147 -159 -188 -63 -32 -77 -35 -150 -34 -63 0 -92 5
-127 23 -145 70 -217 219 -175 362 51 176 238 271 413 209z"/>
</g>
</svg>
